REM DIRINDEX 1\2,1\3
REM DIRNAME cjc102,folder01,folder02
TITLE ""
FILE "CD1Track39.mp3" MP3
  TRACK 01 AUDIO
    TITLE "0:"
    INDEX 01 00:00:00
  TRACK 02 AUDIO
    TITLE "2:cjc102_1823"
    INDEX 01 00:00:25
  TRACK 03 AUDIO
    TITLE "0:"
    INDEX 01 00:01:24
  TRACK 04 AUDIO
    TITLE "3:cjc102_1824"
    INDEX 01 00:01:26
  TRACK 05 AUDIO
    TITLE "0:"
    INDEX 01 00:02:65
  TRACK 06 AUDIO
    TITLE "3:cjc102_1825"
    INDEX 01 00:04:36
  TRACK 07 AUDIO
    TITLE "0:"
    INDEX 01 00:07:58
  TRACK 08 AUDIO
    TITLE "2:cjc102_1826"
    INDEX 01 00:07:60
  TRACK 09 AUDIO
    TITLE "0:"
    INDEX 01 00:08:48
  TRACK 10 AUDIO
    TITLE "3:cjc102_1827"
    INDEX 01 00:08:52
  TRACK 11 AUDIO
    TITLE "0:"
    INDEX 01 00:09:45
  TRACK 12 AUDIO
    TITLE "2:cjc102_1828"
    INDEX 01 00:09:65
  TRACK 13 AUDIO
    TITLE "0:"
    INDEX 01 00:11:05
  TRACK 14 AUDIO
    TITLE "3:cjc102_1829"
    INDEX 01 00:11:27
  TRACK 15 AUDIO
    TITLE "0:"
    INDEX 01 00:12:12
  TRACK 16 AUDIO
    TITLE "2:cjc102_1830"
    INDEX 01 00:12:60
  TRACK 17 AUDIO
    TITLE "0:"
    INDEX 01 00:13:57
  TRACK 18 AUDIO
    TITLE "3:cjc102_1831"
    INDEX 01 00:14:56
  TRACK 19 AUDIO
    TITLE "0:"
    INDEX 01 00:15:58
  TRACK 20 AUDIO
    TITLE "2:cjc102_1832"
    INDEX 01 00:15:70
  TRACK 21 AUDIO
    TITLE "0:"
    INDEX 01 00:17:06
  TRACK 22 AUDIO
    TITLE "3:cjc102_1833"
    INDEX 01 00:17:39
  TRACK 23 AUDIO
    TITLE "0:"
    INDEX 01 00:18:35
  TRACK 24 AUDIO
    TITLE "2:cjc102_1834"
    INDEX 01 00:18:46
  TRACK 25 AUDIO
    TITLE "0:"
    INDEX 01 00:19:50
  TRACK 26 AUDIO
    TITLE "3:cjc102_1835"
    INDEX 01 00:20:51
  TRACK 27 AUDIO
    TITLE "0:"
    INDEX 01 00:21:31
  TRACK 28 AUDIO
    TITLE "2:cjc102_1836"
    INDEX 01 00:21:62
  TRACK 29 AUDIO
    TITLE "0:"
    INDEX 01 00:22:70
  TRACK 30 AUDIO
    TITLE "3:cjc102_1837"
    INDEX 01 00:23:50
  TRACK 31 AUDIO
    TITLE "0:"
    INDEX 01 00:24:47
  TRACK 32 AUDIO
    TITLE "2:cjc102_1838"
    INDEX 01 00:24:65
  TRACK 33 AUDIO
    TITLE "0:"
    INDEX 01 00:26:05
  TRACK 34 AUDIO
    TITLE "3:cjc102_1839"
    INDEX 01 00:26:64
  TRACK 35 AUDIO
    TITLE "0:"
    INDEX 01 00:27:59
  TRACK 36 AUDIO
    TITLE "2:cjc102_1840"
    INDEX 01 00:27:71
  TRACK 37 AUDIO
    TITLE "0:"
    INDEX 01 00:29:11
  TRACK 38 AUDIO
    TITLE "3:cjc102_1841"
    INDEX 01 00:29:70
  TRACK 39 AUDIO
    TITLE "0:"
    INDEX 01 00:30:67
  TRACK 40 AUDIO
    TITLE "2:cjc102_1842"
    INDEX 01 00:31:33
  TRACK 41 AUDIO
    TITLE "0:"
    INDEX 01 00:32:43
  TRACK 42 AUDIO
    TITLE "3:cjc102_1843"
    INDEX 01 00:33:60
  TRACK 43 AUDIO
    TITLE "0:"
    INDEX 01 00:34:53
  TRACK 44 AUDIO
    TITLE "2:cjc102_1844"
    INDEX 01 00:35:00
  TRACK 45 AUDIO
    TITLE "0:"
    INDEX 01 00:36:03
  TRACK 46 AUDIO
    TITLE "3:cjc102_1845"
    INDEX 01 00:36:38
  TRACK 47 AUDIO
    TITLE "0:"
    INDEX 01 00:37:32
  TRACK 48 AUDIO
    TITLE "2:cjc102_1846"
    INDEX 01 00:38:31
  TRACK 49 AUDIO
    TITLE "0:"
    INDEX 01 00:39:43
  TRACK 50 AUDIO
    TITLE "3:cjc102_1847"
    INDEX 01 00:39:74
  TRACK 51 AUDIO
    TITLE "0:"
    INDEX 01 00:41:16
  TRACK 52 AUDIO
    TITLE "2:cjc102_1848"
    INDEX 01 00:42:02
  TRACK 53 AUDIO
    TITLE "0:"
    INDEX 01 00:43:17
  TRACK 54 AUDIO
    TITLE "3:cjc102_1849"
    INDEX 01 00:43:60
  TRACK 55 AUDIO
    TITLE "0:"
    INDEX 01 00:44:71
  TRACK 56 AUDIO
    TITLE "2:cjc102_1850"
    INDEX 01 00:45:59
  TRACK 57 AUDIO
    TITLE "0:"
    INDEX 01 00:46:72
  TRACK 58 AUDIO
    TITLE "3:cjc102_1851"
    INDEX 01 00:48:06
  TRACK 59 AUDIO
    TITLE "0:"
    INDEX 01 00:49:27
  TRACK 60 AUDIO
    TITLE "2:cjc102_1852"
    INDEX 01 00:49:55
  TRACK 61 AUDIO
    TITLE "0:"
    INDEX 01 00:50:58
  TRACK 62 AUDIO
    TITLE "3:cjc102_1853"
    INDEX 01 00:52:06
  TRACK 63 AUDIO
    TITLE "0:"
    INDEX 01 00:53:25
  TRACK 64 AUDIO
    TITLE "2:cjc102_1854"
    INDEX 01 00:53:53
  TRACK 65 AUDIO
    TITLE "0:"
    INDEX 01 00:54:56
  TRACK 66 AUDIO
    TITLE "3:cjc102_1855"
    INDEX 01 00:55:30
  TRACK 67 AUDIO
    TITLE "0:"
    INDEX 01 00:56:37
  TRACK 68 AUDIO
    TITLE "2:cjc102_1856"
    INDEX 01 00:57:31
  TRACK 69 AUDIO
    TITLE "0:"
    INDEX 01 00:58:38
  TRACK 70 AUDIO
    TITLE "3:cjc102_1857"
    INDEX 01 00:59:49
  TRACK 71 AUDIO
    TITLE "0:"
    INDEX 01 01:00:60
  TRACK 72 AUDIO
    TITLE "2:cjc102_1858"
    INDEX 01 01:01:21
  TRACK 73 AUDIO
    TITLE "0:"
    INDEX 01 01:02:34
  TRACK 74 AUDIO
    TITLE "3:cjc102_1859"
    INDEX 01 01:03:22
  TRACK 75 AUDIO
    TITLE "0:"
    INDEX 01 01:04:41
  TRACK 76 AUDIO
    TITLE "2:cjc102_1860"
    INDEX 01 01:05:34
  TRACK 77 AUDIO
    TITLE "0:"
    INDEX 01 01:06:32
  TRACK 78 AUDIO
    TITLE "2:cjc102_1861"
    INDEX 01 01:06:73
  TRACK 79 AUDIO
    TITLE "0:"
    INDEX 01 01:08:05
  TRACK 80 AUDIO
    TITLE "3:cjc102_1862"
    INDEX 01 01:09:26
  TRACK 81 AUDIO
    TITLE "0:"
    INDEX 01 01:10:51
  TRACK 82 AUDIO
    TITLE "2:cjc102_1863"
    INDEX 01 01:11:09
  TRACK 83 AUDIO
    TITLE "0:"
    INDEX 01 01:12:07
  TRACK 84 AUDIO
    TITLE "2:cjc102_1864"
    INDEX 01 01:12:52
  TRACK 85 AUDIO
    TITLE "0:"
    INDEX 01 01:13:59
  TRACK 86 AUDIO
    TITLE "3:cjc102_1865"
    INDEX 01 01:14:49
  TRACK 87 AUDIO
    TITLE "0:"
    INDEX 01 01:15:72
  TRACK 88 AUDIO
    TITLE "2:cjc102_1866"
    INDEX 01 01:15:74
  TRACK 89 AUDIO
    TITLE "0:"
    INDEX 01 01:16:71
  TRACK 90 AUDIO
    TITLE "2:cjc102_1867"
    INDEX 01 01:17:45
  TRACK 91 AUDIO
    TITLE "0:"
    INDEX 01 01:18:49
  TRACK 92 AUDIO
    TITLE "3:cjc102_1868"
    INDEX 01 01:19:56
  TRACK 93 AUDIO
    TITLE "0:"
    INDEX 01 01:20:59
  TRACK 94 AUDIO
    TITLE "2:cjc102_1869"
    INDEX 01 01:20:63
  TRACK 95 AUDIO
    TITLE "0:"
    INDEX 01 01:21:61
  TRACK 96 AUDIO
    TITLE "2:cjc102_1870"
    INDEX 01 01:22:37
  TRACK 97 AUDIO
    TITLE "0:"
    INDEX 01 01:23:50
  TRACK 98 AUDIO
    TITLE "3:cjc102_1871"
    INDEX 01 01:24:51
  TRACK 99 AUDIO
    TITLE "0:"
    INDEX 01 01:25:74
  TRACK 100 AUDIO
    TITLE "2:cjc102_1872"
    INDEX 01 01:26:42
  TRACK 101 AUDIO
    TITLE "0:"
    INDEX 01 01:27:36
  TRACK 102 AUDIO
    TITLE "2:cjc102_1873"
    INDEX 01 01:28:20
  TRACK 103 AUDIO
    TITLE "0:"
    INDEX 01 01:29:21
  TRACK 104 AUDIO
    TITLE "3:cjc102_1874"
    INDEX 01 01:30:05
  TRACK 105 AUDIO
    TITLE "0:"
    INDEX 01 01:31:26
  TRACK 106 AUDIO
    TITLE "2:cjc102_1875"
    INDEX 01 01:31:71
  TRACK 107 AUDIO
    TITLE "0:"
    INDEX 01 01:34:48
  TRACK 108 AUDIO
    TITLE "3:cjc102_1876"
    INDEX 01 01:35:71
  TRACK 109 AUDIO
    TITLE "0:"
    INDEX 01 01:37:22
  TRACK 110 AUDIO
    TITLE "2:cjc102_1877"
    INDEX 01 01:38:06
  TRACK 111 AUDIO
    TITLE "0:"
    INDEX 01 01:41:63
  TRACK 112 AUDIO
    TITLE "3:cjc102_1878"
    INDEX 01 01:43:27
  TRACK 113 AUDIO
    TITLE "0:"
    INDEX 01 01:44:58
  TRACK 114 AUDIO
    TITLE "2:cjc102_1879"
    INDEX 01 01:45:16
  TRACK 115 AUDIO
    TITLE "0:"
    INDEX 01 01:49:18
